<?xml version="1.0" encoding="UTF-8"?>
<!DOCTYPE score-partwise PUBLIC "-//Recordare//DTD MusicXML 3.1 Partwise//EN" "http://www.musicxml.org/dtds/partwise.dtd">
<score-partwise version="3.1">
  <work>
    <work-title>Sonata</work-title>
  </work>
  <identification>
    <creator type="composer">W. A. Mozart</creator>
    <encoding>
      <software>Claude</software>
      <encoding-date>2025-03-05</encoding-date>
    </encoding>
  </identification>
  <part-list>
    <score-part id="P1">
      <part-name>Piano</part-name>
      <score-instrument id="P1-I1">
        <instrument-name>Piano</instrument-name>
      </score-instrument>
      <midi-instrument id="P1-I1">
        <midi-channel>1</midi-channel>
        <midi-program>1</midi-program>
      </midi-instrument>
    </score-part>
  </part-list>
  <part id="P1">
    <!-- Measure 1 -->
    <measure number="1">
      <attributes>
        <divisions>4</divisions>
        <key>
          <fifths>0</fifths>
          <mode>major</mode>
        </key>
        <time>
          <beats>4</beats>
          <beat-type>4</beat-type>
        </time>
        <clef>
          <sign>G</sign>
          <line>2</line>
        </clef>
      </attributes>
      <note>
        <pitch>
          <step>C</step>
          <octave>5</octave>
        </pitch>
        <duration>4</duration>
        <type>quarter</type>
        <voice>1</voice>
      </note>
      <note>
        <pitch>
          <step>E</step>
          <octave>5</octave>
        </pitch>
        <duration>4</duration>
        <type>quarter</type>
        <voice>1</voice>
      </note>
      <note>
        <pitch>
          <step>G</step>
          <octave>5</octave>
        </pitch>
        <duration>4</duration>
        <type>quarter</type>
        <voice>1</voice>
      </note>
      <note>
        <pitch>
          <step>C</step>
          <octave>6</octave>
        </pitch>
        <duration>4</duration>
        <type>quarter</type>
        <voice>1</voice>
      </note>
    </measure>
    
    <!-- Measure 2 -->
    <measure number="2">
      <note>
        <pitch>
          <step>B</step>
          <octave>5</octave>
        </pitch>
        <duration>4</duration>
        <type>quarter</type>
        <voice>1</voice>
      </note>
      <note>
        <pitch>
          <step>A</step>
          <octave>5</octave>
        </pitch>
        <duration>4</duration>
        <type>quarter</type>
        <voice>1</voice>
      </note>
      <note>
        <pitch>
          <step>G</step>
          <octave>5</octave>
        </pitch>
        <duration>4</duration>
        <type>quarter</type>
        <voice>1</voice>
      </note>
      <note>
        <pitch>
          <step>F</step>
          <octave>5</octave>
        </pitch>
        <duration>4</duration>
        <type>quarter</type>
        <voice>1</voice>
      </note>
    </measure>
    
    <!-- Measure 3 -->
    <measure number="3">
      <note>
        <pitch>
          <step>E</step>
          <octave>5</octave>
        </pitch>
        <duration>4</duration>
        <type>quarter</type>
        <voice>1</voice>
      </note>
      <note>
        <pitch>
          <step>D</step>
          <octave>5</octave>
        </pitch>
        <duration>4</duration>
        <type>quarter</type>
        <voice>1</voice>
      </note>
      <note>
        <pitch>
          <step>C</step>
          <octave>5</octave>
        </pitch>
        <duration>4</duration>
        <type>quarter</type>
        <voice>1</voice>
      </note>
      <note>
        <pitch>
          <step>B</step>
          <octave>6</octave>
        </pitch>
        <duration>4</duration>
        <type>quarter</type>
        <voice>1</voice>
      </note>
    </measure>
    
    <!-- Measure 4 -->
    <measure number="4">
      <note>
        <pitch>
          <step>A</step>
          <octave>6</octave>
        </pitch>
        <duration>4</duration>
        <type>quarter</type>
        <voice>1</voice>
      </note>
      <note>
        <pitch>
          <step>G</step>
          <octave>6</octave>
        </pitch>
        <duration>4</duration>
        <type>quarter</type>
        <voice>1</voice>
      </note>
      <note>
        <pitch>
          <step>F</step>
          <octave>6</octave>
        </pitch>
        <duration>4</duration>
        <type>quarter</type>
        <voice>1</voice>
      </note>
      <note>
        <pitch>
          <step>E</step>
          <octave>6</octave>
        </pitch>
        <duration>4</duration>
        <type>quarter</type>
        <voice>1</voice>
      </note>
    </measure>
    
    <!-- Measure 5 -->
    <measure number="5">
      <note>
        <pitch>
          <step>E</step>
          <alter>-1</alter>
          <octave>6</octave>
        </pitch>
        <duration>4</duration>
        <type>quarter</type>
        <voice>1</voice>
        <accidental>flat</accidental>
      </note>
      <note>
        <pitch>
          <step>D</step>
          <octave>6</octave>
        </pitch>
        <duration>4</duration>
        <type>quarter</type>
        <voice>1</voice>
      </note>
      <note>
        <pitch>
          <step>C</step>
          <alter>1</alter>
          <octave>6</octave>
        </pitch>
        <duration>4</duration>
        <type>quarter</type>
        <voice>1</voice>
        <accidental>sharp</accidental>
      </note>
      <note>
        <pitch>
          <step>C</step>
          <octave>6</octave>
        </pitch>
        <duration>4</duration>
        <type>quarter</type>
        <voice>1</voice>
        <accidental>natural</accidental>
      </note>
    </measure>
    
    <!-- Measure 6 -->
    <measure number="6">
      <note>
        <pitch>
          <step>C</step>
          <octave>5</octave>
        </pitch>
        <duration>4</duration>
        <type>quarter</type>
        <voice>1</voice>
      </note>
      <note>
        <pitch>
          <step>C</step>
          <octave>8</octave>
        </pitch>
        <duration>4</duration>
        <type>quarter</type>
        <voice>1</voice>
      </note>
      <note>
        <pitch>
          <step>G</step>
          <octave>4</octave>
        </pitch>
        <duration>4</duration>
        <type>quarter</type>
        <voice>1</voice>
      </note>
      <note>
        <pitch>
          <step>A</step>
          <octave>4</octave>
        </pitch>
        <duration>4</duration>
        <type>quarter</type>
        <voice>1</voice>
      </note>
    </measure>
    
    <!-- Measure 7 -->
    <measure number="7">
      <note>
        <pitch>
          <step>G</step>
          <octave>5</octave>
        </pitch>
        <duration>4</duration>
        <type>quarter</type>
        <voice>1</voice>
      </note>
      <note>
        <pitch>
          <step>G</step>
          <octave>7</octave>
        </pitch>
        <duration>4</duration>
        <type>quarter</type>
        <voice>1</voice>
      </note>
      <note>
        <pitch>
          <step>F</step>
          <octave>7</octave>
        </pitch>
        <duration>4</duration>
        <type>quarter</type>
        <voice>1</voice>
      </note>
      <note>
        <pitch>
          <step>E</step>
          <octave>7</octave>
        </pitch>
        <duration>4</duration>
        <type>quarter</type>
        <voice>1</voice>
      </note>
    </measure>
    
    <!-- Measure 8 -->
    <measure number="8">
      <note>
        <pitch>
          <step>D</step>
          <octave>7</octave>
        </pitch>
        <duration>4</duration>
        <type>quarter</type>
        <voice>1</voice>
      </note>
      <note>
        <pitch>
          <step>C</step>
          <octave>7</octave>
        </pitch>
        <duration>4</duration>
        <type>quarter</type>
        <voice>1</voice>
      </note>
      <note>
        <pitch>
          <step>B</step>
          <octave>6</octave>
        </pitch>
        <duration>4</duration>
        <type>quarter</type>
        <voice>1</voice>
      </note>
      <note>
        <pitch>
          <step>A</step>
          <octave>6</octave>
        </pitch>
        <duration>4</duration>
        <type>quarter</type>
        <voice>1</voice>
      </note>
    </measure>
    
    <!-- Measure 9 -->
    <measure number="9">
      <note>
        <pitch>
          <step>G</step>
          <octave>6</octave>
        </pitch>
        <duration>4</duration>
        <type>quarter</type>
        <voice>1</voice>
      </note>
      <note>
        <pitch>
          <step>F</step>
          <octave>6</octave>
        </pitch>
        <duration>4</duration>
        <type>quarter</type>
        <voice>1</voice>
      </note>
      <note>
        <pitch>
          <step>E</step>
          <octave>6</octave>
        </pitch>
        <duration>1</duration>
        <type>16th</type>
        <voice>1</voice>
        <beam number="1">begin</beam>
        <beam number="2">begin</beam>
      </note>
      <note>
        <pitch>
          <step>D</step>
          <octave>6</octave>
        </pitch>
        <duration>1</duration>
        <type>16th</type>
        <voice>1</voice>
        <beam number="1">continue</beam>
        <beam number="2">continue</beam>
      </note>
      <note>
        <pitch>
          <step>C</step>
          <octave>6</octave>
        </pitch>
        <duration>1</duration>
        <type>16th</type>
        <voice>1</voice>
        <beam number="1">continue</beam>
        <beam number="2">continue</beam>
      </note>
      <note>
        <pitch>
          <step>B</step>
          <octave>5</octave>
        </pitch>
        <duration>1</duration>
        <type>16th</type>
        <voice>1</voice>
        <beam number="1">end</beam>
        <beam number="2">end</beam>
      </note>
      <note>
        <pitch>
          <step>A</step>
          <octave>5</octave>
        </pitch>
        <duration>1</duration>
        <type>16th</type>
        <voice>1</voice>
        <beam number="1">begin</beam>
        <beam number="2">begin</beam>
      </note>
      <note>
        <pitch>
          <step>D</step>
          <octave>7</octave>
        </pitch>
        <duration>1</duration>
        <type>16th</type>
        <voice>1</voice>
        <beam number="1">continue</beam>
        <beam number="2">continue</beam>
      </note>
      <note>
        <pitch>
          <step>G</step>
          <octave>6</octave>
        </pitch>
        <duration>1</duration>
        <type>16th</type>
        <voice>1</voice>
        <beam number="1">continue</beam>
        <beam number="2">continue</beam>
      </note>
      <note>
        <pitch>
          <step>C</step>
          <octave>5</octave>
        </pitch>
        <duration>1</duration>
        <type>16th</type>
        <voice>1</voice>
        <beam number="1">end</beam>
        <beam number="2">end</beam>
      </note>
    </measure>
    
    <!-- Measure 10 -->
    <measure number="10">
      <attributes>
        <time>
          <beats>5</beats>
          <beat-type>4</beat-type>
        </time>
      </attributes>
      <note>
        <pitch>
          <step>C</step>
          <octave>5</octave>
        </pitch>
        <duration>4</duration>
        <type>quarter</type>
        <voice>1</voice>
      </note>
      <note>
        <pitch>
          <step>D</step>
          <octave>5</octave>
        </pitch>
        <duration>4</duration>
        <type>quarter</type>
        <voice>1</voice>
      </note>
      <note>
        <pitch>
          <step>E</step>
          <octave>5</octave>
        </pitch>
        <duration>4</duration>
        <type>quarter</type>
        <voice>1</voice>
      </note>
      <note>
        <pitch>
          <step>E</step>
          <octave>7</octave>
        </pitch>
        <duration>4</duration>
        <type>quarter</type>
        <voice>1</voice>
      </note>
      <note>
        <pitch>
          <step>F</step>
          <octave>5</octave>
        </pitch>
        <duration>4</duration>
        <type>quarter</type>
        <voice>1</voice>
      </note>
    </measure>
    
    <!-- Measure 11 -->
    <measure number="11">
      <attributes>
        <key>
          <fifths>-5</fifths>
          <mode>major</mode>
        </key>
        <time>
          <beats>4</beats>
          <beat-type>4</beat-type>
        </time>
      </attributes>
      <note>
        <pitch>
          <step>D</step>
          <alter>-1</alter>
          <octave>5</octave>
        </pitch>
        <duration>4</duration>
        <type>quarter</type>
        <voice>1</voice>
        <accidental>flat</accidental>
      </note>
      <note>
        <pitch>
          <step>F</step>
          <octave>5</octave>
        </pitch>
        <duration>4</duration>
        <type>quarter</type>
        <voice>1</voice>
      </note>
      <note>
        <pitch>
          <step>A</step>
          <alter>-1</alter>
          <octave>5</octave>
        </pitch>
        <duration>4</duration>
        <type>quarter</type>
        <voice>1</voice>
        <accidental>flat</accidental>
      </note>
      <note>
        <pitch>
          <step>G</step>
          <alter>1</alter>
          <octave>8</octave>
        </pitch>
        <duration>4</duration>
        <type>quarter</type>
        <voice>1</voice>
        <accidental>sharp</accidental>
      </note>
    </measure>
    
    <!-- Measure 12 -->
    <measure number="12">
      <note>
        <pitch>
          <step>D</step>
          <octave>6</octave>
        </pitch>
        <duration>4</duration>
        <type>quarter</type>
        <voice>1</voice>
      </note>
      <note>
        <pitch>
          <step>E</step>
          <octave>6</octave>
        </pitch>
        <duration>4</duration>
        <type>quarter</type>
        <voice>1</voice>
      </note>
      <note>
        <pitch>
          <step>F</step>
          <octave>6</octave>
        </pitch>
        <duration>4</duration>
        <type>quarter</type>
        <voice>1</voice>
      </note>
      <note>
        <pitch>
          <step>G</step>
          <octave>6</octave>
        </pitch>
        <duration>4</duration>
        <type>quarter</type>
        <voice>1</voice>
      </note>
    </measure>
    
    <!-- Measure 13 -->
    <measure number="13">
      <note>
        <pitch>
          <step>A</step>
          <octave>6</octave>
        </pitch>
        <duration>8</duration>
        <type>half</type>
        <voice>1</voice>
      </note>
      <note>
        <pitch>
          <step>D</step>
          <octave>5</octave>
        </pitch>
        <duration>8</duration>
        <type>half</type>
        <voice>1</voice>
      </note>
    </measure>
    
    <!-- Measure 14 -->
    <measure number="14">
      <note>
        <pitch>
          <step>E</step>
          <octave>5</octave>
        </pitch>
        <duration>4</duration>
        <type>quarter</type>
        <voice>1</voice>
      </note>
      <note>
        <pitch>
          <step>F</step>
          <octave>5</octave>
        </pitch>
        <duration>4</duration>
        <type>quarter</type>
        <voice>1</voice>
      </note>
      <note>
        <pitch>
          <step>G</step>
          <octave>5</octave>
        </pitch>
        <duration>4</duration>
        <type>quarter</type>
        <voice>1</voice>
      </note>
      <note>
        <pitch>
          <step>A</step>
          <octave>5</octave>
        </pitch>
        <duration>4</duration>
        <type>quarter</type>
        <voice>1</voice>
      </note>
    </measure>
    
    <!-- Measure 15 -->
    <measure number="15">
      <note>
        <pitch>
          <step>B</step>
          <octave>2</octave>
        </pitch>
        <duration>2</duration>
        <type>eighth</type>
        <voice>1</voice>
        <beam number="1">begin</beam>
      </note>
      <note>
        <pitch>
          <step>C</step>
          <octave>7</octave>
        </pitch>
        <duration>2</duration>
        <type>eighth</type>
        <voice>1</voice>
        <beam number="1">end</beam>
      </note>
      <note>
        <pitch>
          <step>D</step>
          <octave>3</octave>
        </pitch>
        <duration>2</duration>
        <type>eighth</type>
        <voice>1</voice>
        <beam number="1">begin</beam>
      </note>
      <note>
        <pitch>
          <step>E</step>
          <octave>8</octave>
        </pitch>
        <duration>2</duration>
        <type>eighth</type>
        <voice>1</voice>
        <beam number="1">end</beam>
      </note>
      <note>
        <pitch>
          <step>F</step>
          <octave>2</octave>
        </pitch>
        <duration>2</duration>
        <type>eighth</type>
        <voice>1</voice>
        <beam number="1">begin</beam>
      </note>
      <note>
        <pitch>
          <step>G</step>
          <octave>7</octave>
        </pitch>
        <duration>2</duration>
        <type>eighth</type>
        <voice>1</voice>
        <beam number="1">end</beam>
      </note>
      <note>
        <pitch>
          <step>A</step>
          <octave>3</octave>
        </pitch>
        <duration>2</duration>
        <type>eighth</type>
        <voice>1</voice>
        <beam number="1">begin</beam>
      </note>
      <note>
        <pitch>
          <step>B</step>
          <octave>8</octave>
        </pitch>
        <duration>2</duration>
        <type>eighth</type>
        <voice>1</voice>
        <beam number="1">end</beam>
      </note>
    </measure>
    
    <!-- Measure 16 -->
    <measure number="16">
      <note>
        <pitch>
          <step>C</step>
          <octave>4</octave>
        </pitch>
        <duration>4</duration>
        <type>quarter</type>
        <voice>1</voice>
      </note>
      <note>
        <pitch>
          <step>F</step>
          <octave>7</octave>
        </pitch>
        <duration>4</duration>
        <type>quarter</type>
        <voice>1</voice>
      </note>
      <note>
        <pitch>
          <step>B</step>
          <octave>3</octave>
        </pitch>
        <duration>4</duration>
        <type>quarter</type>
        <voice>1</voice>
      </note>
      <barline location="right">
        <bar-style>light-heavy</bar-style>
      </barline>
    </measure>
    
    <measure number="17">
      <attributes>
        <time>
          <beats>7</beats>
          <beat-type>8</beat-type>
        </time>
      </attributes>
      <note>
        <pitch>
          <step>C</step>
          <octave>5</octave>
        </pitch>
        <duration>2</duration>
        <type>eighth</type>
        <voice>1</voice>
        <beam number="1">begin</beam>
      </note>
      <note>
        <pitch>
          <step>D</step>
          <octave>5</octave>
        </pitch>
        <duration>2</duration>
        <type>eighth</type>
        <voice>1</voice>
        <beam number="1">continue</beam>
      </note>
      <note>
        <pitch>
          <step>E</step>
          <octave>5</octave>
        </pitch>
        <duration>2</duration>
        <type>eighth</type>
        <voice>1</voice>
        <beam number="1">end</beam>
      </note>
      <note>
        <pitch>
          <step>B</step>
          <octave>7</octave>
        </pitch>
        <duration>4</duration>
        <type>quarter</type>
        <voice>1</voice>
      </note>
      <note>
        <pitch>
          <step>A</step>
          <octave>4</octave>
        </pitch>
        <duration>4</duration>
        <type>quarter</type>
        <voice>1</voice>
      </note>
      <note>
        <rest/>
        <duration>2</duration>
        <type>eighth</type>
        <voice>1</voice>
      </note>
      <barline location="right">
        <bar-style>light-heavy</bar-style>
      </barline>
    </measure>
  </part>
</score-partwise>